<?xml version="1.0" encoding="UTF-8" standalone="no"?>
<!DOCTYPE svg PUBLIC "-//W3C//DTD SVG 20010904//EN"
              "http://www.w3.org/TR/2001/REC-SVG-20010904/DTD/svg10.dtd">

<svg xmlns="http://www.w3.org/2000/svg"
     width="0.847222in" height="0.847222in"
     viewBox="0 0 61 61">
  <path id="Selection"
        fill="#666d89" opacity="0.7"
        d="M 45.00,3.99
           C 61.18,12.27 65.27,36.23 53.67,49.99
             46.74,58.21 39.26,60.12 29.00,60.00
             10.51,59.78 0.80,46.50 1.00,29.00
             1.07,23.51 2.14,18.70 5.13,14.00
             9.58,7.00 15.20,3.62 23.00,1.52
             30.24,0.37 38.36,0.60 45.00,3.99 Z
           M 17.00,7.22
           C -7.13,21.55 3.92,58.95 32.00,57.24
             58.12,55.65 66.53,22.23 45.00,7.85
             40.69,4.97 36.07,4.07 31.00,3.71
             26.07,3.86 21.31,4.66 17.00,7.22 Z
           M 32.00,14.05
           C 35.85,14.23 38.38,16.09 40.00,18.36
             42.00,21.17 42.34,24.58 41.26,28.78
             40.58,31.42 39.40,32.41 38.27,34.82
             37.70,36.04 36.96,37.34 36.45,38.91
             35.36,43.18 35.25,44.82 33.36,45.55
             31.05,46.44 31.00,46.45 28.55,45.82
             27.72,44.71 26.64,44.82 26.18,41.55
             25.33,39.41 24.89,36.71 24.36,35.55
             23.29,33.15 21.58,31.84 20.82,29.73
             19.84,27.03 19.67,23.21 20.64,20.45
             21.41,18.24 22.96,16.55 26.09,14.82
             28.43,14.25 29.54,13.93 32.00,14.05 Z
           M 23.78,19.96
           C 22.86,21.37 22.31,22.99 22.30,24.61
             22.29,26.66 23.14,28.88 24.22,30.96
             24.95,32.38 25.66,33.88 26.78,34.65
             27.55,35.18 28.24,34.99 28.83,34.96
             29.77,34.91 30.59,34.89 31.48,34.91
             32.74,34.87 34.52,35.54 35.30,34.65
             37.08,32.66 39.48,27.42 39.57,24.48
             39.63,22.37 38.75,20.30 37.27,18.82
             34.66,16.21 31.45,15.91 28.17,16.57
             26.61,17.45 24.57,18.75 23.78,19.96 Z
           M 25.74,20.43
           C 26.40,19.56 28.66,18.66 30.17,18.78
             31.05,18.85 30.99,18.59 32.04,18.96
             32.10,18.95 32.03,19.86 31.49,20.16
             30.98,20.62 29.03,20.45 28.09,21.30
             27.28,22.03 26.70,23.93 26.17,24.78
             26.61,25.87 24.96,25.96 24.96,25.96
             24.48,24.78 24.83,21.63 25.74,20.43 Z
           M 33.71,38.07
           C 32.34,38.31 27.78,38.13 27.78,38.13
             27.78,38.13 26.68,37.31 27.98,37.09
             29.63,36.81 34.24,37.02 34.24,37.02
             34.24,37.02 35.29,37.79 33.71,38.07 Z
           M 29.40,42.93
           C 29.40,42.93 32.36,42.93 32.36,42.93
             32.36,42.93 32.24,43.61 31.78,43.89
             31.46,44.08 29.96,43.87 29.96,43.87
             29.96,43.87 29.40,42.93 29.40,42.93 Z
           M 28.09,40.47
           C 28.11,40.20 28.84,39.96 28.84,39.96
             28.84,39.96 30.02,39.89 31.27,39.89
             32.36,39.89 33.53,39.96 33.53,39.96
             33.53,39.96 33.95,40.22 33.84,40.47
             33.73,40.72 33.09,40.96 33.09,40.96
             33.09,40.96 32.12,40.96 31.10,40.97
             29.97,40.97 28.78,40.98 28.78,40.98
             28.78,40.98 28.07,40.71 28.09,40.47 Z
           M 33.93,38.00" />
</svg>
