<?xml version="1.0" encoding="UTF-8" standalone="no"?>
<!DOCTYPE svg PUBLIC "-//W3C//DTD SVG 20010904//EN"
              "http://www.w3.org/TR/2001/REC-SVG-20010904/DTD/svg10.dtd">

<svg xmlns="http://www.w3.org/2000/svg"
     width="0.847222in" height="0.847222in"
     viewBox="0 0 61 61">
  <path id="Selection"
        fill="#666d89" opacity="0.7"
        d="M 45.00,3.99
           C 61.18,12.27 65.27,36.23 53.67,49.99
             46.74,58.21 39.26,60.12 29.00,60.00
             10.51,59.78 0.80,46.50 1.00,29.00
             1.07,23.51 2.14,18.70 5.13,14.00
             9.58,7.00 15.20,3.62 23.00,1.52
             30.24,0.37 38.36,0.60 45.00,3.99 Z
           M 17.00,7.22
           C -7.13,21.55 3.92,58.95 32.00,57.24
             58.12,55.65 66.53,22.23 45.00,7.85
             40.69,4.97 36.07,4.07 31.00,3.71
             26.07,3.86 21.31,4.66 17.00,7.22 Z
           M 20.82,42.45
           C 21.32,41.22 21.67,40.66 21.36,39.73
             20.89,38.29 19.40,37.54 18.27,36.45
             16.88,35.11 15.82,33.46 15.29,31.98
             14.62,30.11 14.49,27.98 15.60,25.00
             19.15,15.47 36.11,14.63 42.94,20.39
             47.09,23.89 48.34,28.55 46.55,32.73
             45.55,35.05 43.33,37.39 40.82,38.91
             37.13,41.14 35.93,40.60 32.18,41.18
             30.74,41.40 28.97,40.79 28.00,41.00
             26.94,41.23 26.53,42.24 25.64,42.73
             24.54,43.33 23.64,44.73 21.55,45.09
             20.99,45.19 20.32,44.65 19.64,44.73
             19.67,44.06 20.56,43.09 20.82,42.45 Z
           M 26.45,38.91
           C 27.23,38.40 28.27,38.42 29.00,38.36
             30.96,38.21 32.62,38.91 34.09,38.73
             36.03,38.48 37.11,37.55 38.96,36.55
             41.30,35.28 43.72,32.72 44.36,30.55
             45.22,27.65 43.57,25.00 40.77,22.65
             34.53,17.41 14.70,19.22 17.64,30.91
             17.99,32.32 18.67,33.74 19.82,34.91
             20.75,35.86 22.91,36.58 23.73,37.91
             24.21,38.69 23.62,39.93 24.09,40.91
             24.99,40.59 25.59,39.48 26.45,38.91 Z
           M 21.09,25.64
           C 21.96,24.52 23.07,23.53 24.00,23.00
             25.20,22.31 26.95,22.03 28.18,21.91
             30.14,21.71 31.68,22.14 32.00,23.00
             32.17,23.62 29.89,23.09 27.73,23.45
             26.40,23.68 25.03,24.76 24.55,25.09
             23.94,25.50 23.25,25.90 22.45,26.91
             21.85,27.67 21.09,30.27 20.00,30.00
             19.24,29.34 19.78,27.32 21.09,25.64 Z" />
</svg>
