<?xml version="1.0" encoding="UTF-8" standalone="no"?>
<!DOCTYPE svg PUBLIC "-//W3C//DTD SVG 20010904//EN"
              "http://www.w3.org/TR/2001/REC-SVG-20010904/DTD/svg10.dtd">

<svg xmlns="http://www.w3.org/2000/svg"
     width="0.861111in" height="0.847222in"
     viewBox="0 0 62 61">
  <path id="Selection"
        fill="#666d89" opacity="0.7"
        d="M 45.00,3.99
           C 61.18,12.27 65.27,36.23 53.67,49.99
             46.74,58.21 39.26,60.12 29.00,60.00
             10.51,59.78 0.80,46.50 1.00,29.00
             1.07,23.51 2.14,18.70 5.13,14.00
             9.58,7.00 15.20,3.62 23.00,1.52
             30.24,0.37 38.36,0.60 45.00,3.99 Z
           M 17.00,7.22
           C -7.13,21.55 3.92,58.95 32.00,57.24
             58.12,55.65 66.53,22.23 45.00,7.85
             40.69,4.97 36.07,4.07 31.00,3.71
             26.07,3.86 21.31,4.66 17.00,7.22 Z
           M 24.36,16.45
           C 25.53,16.43 26.92,17.59 28.36,17.73
             29.31,17.86 30.99,20.01 31.09,18.64
             32.12,18.65 33.16,17.23 34.18,17.18
             35.09,17.14 37.03,16.74 37.82,16.73
             40.83,16.67 42.28,17.88 43.27,18.64
             45.83,20.57 47.35,23.33 47.27,26.09
             47.20,28.73 46.64,30.73 43.73,34.09
             42.43,36.17 40.31,37.44 38.73,39.09
             36.57,41.36 34.80,44.08 32.82,44.73
             31.32,45.21 30.43,45.25 29.18,44.82
             26.95,44.04 25.49,41.33 23.73,39.64
             21.52,37.52 18.29,35.31 16.55,32.55
             14.90,29.93 14.43,27.33 15.00,24.64
             15.52,22.18 17.15,19.33 20.36,17.45
             21.22,17.24 22.58,16.49 24.36,16.45 Z
           M 18.00,23.00
           C 16.81,24.74 16.84,27.60 17.91,29.55
             19.26,32.01 22.91,34.98 25.00,36.98
             26.82,38.73 28.91,41.00 31.18,42.27
             33.00,40.64 35.90,38.19 38.27,35.73
             39.89,34.05 41.89,32.21 42.91,30.36
             44.08,28.26 44.34,26.38 44.00,24.82
             43.67,23.31 42.99,21.53 41.91,20.64
             40.08,19.13 37.08,19.31 35.27,19.64
             32.74,20.10 31.98,22.73 30.82,22.73
             29.05,22.73 28.51,20.96 27.55,20.18
             26.33,19.21 24.67,19.24 21.55,19.82
             19.67,20.97 18.80,21.83 18.00,23.00 Z
           M 21.00,22.91
           C 21.66,22.25 22.82,22.44 24.82,22.09
             25.68,24.34 23.36,23.20 22.00,24.45
             20.84,25.61 20.91,27.91 20.91,27.91
             18.82,25.45 20.34,23.57 21.00,22.91 Z" />
</svg>
