<?xml version="1.0" encoding="UTF-8" standalone="no"?>
<!DOCTYPE svg PUBLIC "-//W3C//DTD SVG 20010904//EN"
              "http://www.w3.org/TR/2001/REC-SVG-20010904/DTD/svg10.dtd">

<svg xmlns="http://www.w3.org/2000/svg"
     width="0.861111in" height="0.847222in"
     viewBox="0 0 62 61">
  <path id="Selection"
        fill="#666d89" opacity="0.7"
        d="M 45.00,3.99
           C 61.18,12.27 65.27,36.23 53.67,49.99
             46.74,58.21 39.26,60.12 29.00,60.00
             10.51,59.78 0.80,46.50 1.00,29.00
             1.07,23.51 2.14,18.70 5.13,14.00
             9.58,7.00 15.20,3.62 23.00,1.52
             30.24,0.37 38.36,0.60 45.00,3.99 Z
           M 17.00,7.22
           C -7.13,21.55 3.92,58.95 32.00,57.24
             58.12,55.65 66.53,22.23 45.00,7.85
             40.69,4.97 36.07,4.07 31.00,3.71
             26.07,3.86 21.31,4.66 17.00,7.22 Z
           M 20.01,44.08
           C 20.03,38.35 20.05,25.48 19.91,17.27
             20.32,15.69 19.95,16.59 20.73,15.45
             21.25,14.56 20.92,15.35 22.73,15.18
             27.16,14.93 34.78,14.94 38.99,14.97
             40.82,14.98 40.73,15.64 40.73,15.64
             40.73,15.64 42.00,15.95 42.00,17.53
             42.00,23.46 42.00,38.19 42.00,44.29
             42.00,45.97 41.27,46.27 41.27,46.27
             41.27,46.27 40.77,47.00 38.89,47.00
             34.46,47.00 26.46,47.00 22.44,47.00
             20.94,47.00 20.73,46.18 20.73,46.18
             20.73,46.18 20.01,45.90 20.01,44.08 Z
           M 39.27,17.27
           C 38.26,16.72 34.44,16.92 31.09,16.91
             27.22,16.89 23.78,16.74 22.73,17.36
             21.53,18.40 22.42,19.38 22.00,20.00
             22.00,20.00 40.00,20.00 40.00,20.00
             39.20,18.80 40.83,17.77 39.27,17.27 Z
           M 22.00,21.00
           C 22.00,21.00 22.00,41.00 22.00,41.00
             22.00,41.00 40.00,41.00 40.00,41.00
             40.00,41.00 40.00,21.00 40.00,21.00
             40.00,21.00 22.00,21.00 22.00,21.00 Z
           M 22.00,42.00
           C 22.42,42.62 21.44,43.87 22.64,44.91
             23.56,45.46 27.34,45.23 30.82,45.18
             34.69,45.12 38.31,45.17 39.45,44.55
             41.01,44.04 39.20,43.20 40.00,42.00
             40.00,42.00 22.00,42.00 22.00,42.00 Z
           M 29.82,42.91
           C 29.82,42.91 31.64,42.73 31.64,42.73
             31.64,42.73 32.00,43.82 32.00,43.82
             32.00,43.82 29.73,44.09 29.73,44.09
             29.73,44.09 29.82,42.91 29.82,42.91 Z
           M 29.00,18.00
           C 29.00,18.00 32.73,17.91 32.73,17.91
             32.73,17.91 32.73,18.91 32.73,18.91
             32.73,18.91 28.91,19.00 28.91,19.00
             28.91,19.00 29.00,18.00 29.00,18.00 Z" />
</svg>
