<?xml version="1.0" encoding="UTF-8" standalone="no"?>
<!DOCTYPE svg PUBLIC "-//W3C//DTD SVG 20010904//EN"
              "http://www.w3.org/TR/2001/REC-SVG-20010904/DTD/svg10.dtd">

<svg xmlns="http://www.w3.org/2000/svg"
     width="0.861111in" height="0.847222in"
     viewBox="0 0 62 61">
  <path id="Selection"
        fill="#666d89" opacity="0.7"
        d="M 45.00,3.99
           C 61.18,12.27 65.27,36.23 53.67,49.99
             46.74,58.21 39.26,60.12 29.00,60.00
             10.51,59.78 0.80,46.50 1.00,29.00
             1.07,23.51 2.14,18.70 5.13,14.00
             9.58,7.00 15.20,3.62 23.00,1.52
             30.24,0.37 38.36,0.60 45.00,3.99 Z
           M 17.00,7.22
           C -7.13,21.55 3.92,58.95 32.00,57.24
             58.12,55.65 66.53,22.23 45.00,7.85
             40.69,4.97 36.07,4.07 31.00,3.71
             26.07,3.86 21.31,4.66 17.00,7.22 Z
           M 38.57,15.00
           C 40.89,15.10 42.90,16.14 44.44,17.50
             46.70,19.50 47.90,22.70 46.26,27.00
             45.62,28.70 42.85,31.35 40.00,34.31
             36.25,38.22 32.11,42.47 30.00,43.75
             28.72,44.52 25.99,45.22 23.31,45.81
             20.12,46.52 15.19,47.69 15.62,45.94
             14.56,45.88 14.97,42.12 15.31,39.94
             16.26,35.66 16.38,36.04 16.69,34.88
             17.77,32.15 21.43,28.86 24.74,25.35
             28.24,21.64 32.26,17.70 34.13,15.87
             35.71,15.34 37.19,14.94 38.57,15.00 Z
           M 44.69,23.12
           C 44.60,21.80 43.97,20.26 42.88,19.19
             41.62,17.96 39.81,17.29 38.25,17.25
             37.14,17.22 35.75,18.31 34.44,19.31
             34.44,19.31 37.24,20.37 39.12,22.25
             41.23,24.36 42.50,27.44 42.50,27.44
             43.75,25.94 44.76,24.31 44.69,23.12 Z
           M 32.22,22.13
           C 30.51,23.00 29.41,24.60 27.96,26.04
             26.45,27.54 24.60,28.90 23.30,30.70
             23.95,30.39 24.98,31.17 25.52,30.87
             27.36,29.85 28.69,28.09 30.22,26.39
             31.40,25.07 32.82,23.91 33.91,22.39
             33.65,22.22 32.74,21.86 32.22,22.13 Z
           M 35.70,23.48
           C 34.51,24.08 33.65,25.32 32.30,26.61
             30.36,28.47 28.05,30.52 27.52,31.74
             27.25,32.38 27.67,32.81 28.12,32.94
             28.12,32.94 29.00,34.00 29.00,34.00
             29.31,34.06 29.64,34.57 30.26,34.22
             31.39,33.58 32.57,32.03 34.00,30.57
             35.62,28.90 37.61,27.43 38.35,26.09
             38.80,25.26 38.55,24.30 38.12,23.94
             37.68,23.39 36.88,22.88 35.70,23.48 Z
           M 31.19,37.81
           C 31.88,38.25 41.38,29.56 39.94,27.75
             40.00,26.56 29.25,37.25 31.19,37.81 Z
           M 26.75,42.50
           C 27.88,42.05 28.49,41.12 28.69,40.31
             29.52,36.84 24.38,32.02 21.25,33.38
             20.57,33.67 19.63,34.38 19.25,35.50
             19.00,36.22 19.30,37.24 19.00,38.00
             19.00,38.00 21.11,38.49 22.25,39.62
             23.59,40.97 24.00,43.00 24.00,43.00
             24.86,42.66 25.99,42.80 26.75,42.50 Z
           M 17.62,44.19
           C 17.62,44.19 22.69,43.88 22.69,43.88
             22.69,43.88 22.08,41.94 21.00,40.75
             20.19,39.86 18.06,39.38 18.06,39.38
             18.06,39.38 17.62,44.19 17.62,44.19 Z" />
</svg>
