<?xml version="1.0" encoding="UTF-8" standalone="no"?>
<!DOCTYPE svg PUBLIC "-//W3C//DTD SVG 20010904//EN"
              "http://www.w3.org/TR/2001/REC-SVG-20010904/DTD/svg10.dtd">

<svg xmlns="http://www.w3.org/2000/svg"
     width="0.861111in" height="0.847222in"
     viewBox="0 0 62 61">
  <path id="Selection"
        fill="#666d89" opacity="0.7"
        d="M 45.00,3.99
           C 61.18,12.27 65.27,36.23 53.67,49.99
             46.74,58.21 39.26,60.12 29.00,60.00
             10.51,59.78 0.80,46.50 1.00,29.00
             1.07,23.51 2.14,18.70 5.13,14.00
             9.58,7.00 15.20,3.62 23.00,1.52
             30.24,0.37 38.36,0.60 45.00,3.99 Z
           M 17.00,7.22
           C -7.13,21.55 3.92,58.95 32.00,57.24
             58.12,55.65 66.53,22.23 45.00,7.85
             40.69,4.97 36.07,4.07 31.00,3.71
             26.07,3.86 21.31,4.66 17.00,7.22 Z
           M 20.45,35.36
           C 17.91,32.09 13.45,29.27 15.63,26.43
             16.09,23.91 22.00,24.64 25.09,23.55
             28.45,20.36 27.47,15.18 31.00,15.18
             33.43,15.18 34.30,19.85 36.00,22.09
             36.78,23.11 36.68,23.21 37.91,23.91
             40.45,25.36 45.81,23.55 46.82,26.18
             48.08,29.46 42.19,32.16 41.00,35.00
             40.83,35.51 40.83,38.95 41.18,41.64
             41.45,43.69 42.28,45.07 41.36,45.82
             40.28,46.71 38.51,45.69 36.64,45.18
             35.63,44.91 33.18,42.45 31.00,42.00
             30.09,41.86 25.40,44.91 22.73,46.00
             20.34,46.98 20.55,44.73 20.55,44.73
             19.64,42.00 21.36,37.55 20.45,35.36 Z
           M 30.91,18.91
           C 29.36,20.64 28.27,23.82 27.00,26.00
             24.73,26.45 19.09,26.73 17.91,27.45
             17.91,28.83 21.00,30.55 23.73,34.27
             23.95,35.23 22.82,41.36 23.36,43.00
             25.45,42.00 29.00,39.91 30.91,39.55
             32.59,39.83 36.45,43.09 38.45,42.45
             39.82,40.45 37.15,35.88 37.64,34.09
             39.82,31.36 42.40,30.37 43.55,27.09
             39.64,26.45 37.82,26.55 35.36,25.82
             34.00,24.64 32.36,19.73 30.91,18.91 Z" />
</svg>
